# xmcd
#
# Track frame offsets: 
#        150
#        12342
#        24657
#        38185
#        51127
#        64442
#        77192
#        89635
#        101045
#        115025
#        125987
#        137852
#        150650
#        164157
#        174742
#        187992
#        201492
#        213130
#        227465
#        239222
#        250330
#        263440
#        275355
#        288062
#        300900
#
# Disc length: 4161 seconds
#
# Revision: 3
# Processed by: cddbd v1.5.2PL0 Copyright (c) Steve Scherf et al.
# Submitted via: ExactAudioCopyFreeDBPlugin 1.0
#
DISCID=6e103f19
DTITLE=Various Artist - Sun Records:  The Ultimate Blues Collection -
DTITLE=75 Essential Recordings
DYEAR=2003
DGENRE=Blues
TTITLE0=Joe Hill Louis - We All Gotta Go Sometime
TTITLE1=Willie Nix, The Memphis Blues Boy - Baker Shop Boogie
TTITLE2=Jimmy DeBerry and Walter Horton - Easy (instrumental)
TTITLE3=Rufus "Hound Dog" Thomas - Bear Cat (The Answer to Hound Dog)
TTITLE4=Little Junior's Blue Flames - Feelin' Good
TTITLE5=Rufus Thomas Jr. - Tiger Man (King of the Jungle)
TTITLE6=Pinetop Perkins - Pinetop's Boogie Woogie
TTITLE7=Joe Hill Louis - Hydramatic Woman
TTITLE8=Earl Hooker - The Hucklebuck
TTITLE9=Little Junior's Blue Flames - Mystery Train
TTITLE10=Little Junior's Blue Flames - Love Me Baby
TTITLE11=Doctor Ross - Come Back Baby
TTITLE12=Little Milton - Somebody Told Me
TTITLE13=James Cotton - Straighten Up Baby
TTITLE14=Pat Hare - I'm Gonna Murder My Baby
TTITLE15=James Cotton - Cotton Croop Blues
TTITLE16=Doctor Ross - The Boogie Disease
TTITLE17=Billy "The Kid" Emerson - When it Rains it Pours
TTITLE18=Sammy Lewis with Willie Johnson - I Feel So Worried
TTITLE19=Billy "The Kid" Emerson - Red Hot
TTITLE20=Little Milton - Lookin' for My Baby
TTITLE21=Eddie Snow - Ain't That Right
TTITLE22=Guitar Red - Go Ahead On
TTITLE23=Rosco Gordon - The Chicken (Dance with You)
TTITLE24=Frank Frost - Jelly Roll King
EXTD=
EXTT0=
EXTT1=
EXTT2=
EXTT3=
EXTT4=
EXTT5=
EXTT6=
EXTT7=
EXTT8=
EXTT9=
EXTT10=
EXTT11=
EXTT12=
EXTT13=
EXTT14=
EXTT15=
EXTT16=
EXTT17=
EXTT18=
EXTT19=
EXTT20=
EXTT21=
EXTT22=
EXTT23=
EXTT24=
PLAYORDER=
